<svg xmlns="http://www.w3.org/2000/svg" enable-background="new 0 0 2500 2500" viewBox="0 0 2500 2500"><path fill="#ffc1a4" d="M1161.72,1381.65c0,0,73.76,70.73,64.19,86.87c-8.78,14.8-33.95,0.03-33.95,0.03s19.62,17.67,10.77,28.84
						c-9.81,12.4-32.85-8.92-32.85-8.92s20.94,17.91,10.13,28.74c-12.95,12.97-33.53-9.38-33.53-9.38s8.42,27.66-17.61,21.3
						c-22.34-5.45-104.69-126.05-104.69-126.05l104.97-79.82"/><path fill="#060606" d="M1126.18,1411.05c-14.79,0-24.93-8.41-25.43-8.83c-1.34-1.13-1.51-3.14-0.38-4.48
						c1.13-1.34,3.14-1.51,4.48-0.38c0.12,0.1,12.44,10.19,28.68,6.5c16.34-3.73,25.19-23.3,25.28-23.5
						c0.71-1.6,2.59-2.33,4.19-1.62c1.6,0.71,2.33,2.59,1.62,4.19c-0.41,0.92-10.26,22.69-29.68,27.12
						C1131.89,1410.76,1128.95,1411.05,1126.18,1411.05z"/><path fill="#060606" d="M1191.96,1471.74c-0.82,0-1.65-0.32-2.27-0.96l-33.91-34.7c-1.23-1.26-1.2-3.27,0.05-4.49
						c1.26-1.22,3.27-1.2,4.5,0.05l33.91,34.7c1.23,1.26,1.2,3.27-0.05,4.49C1193.56,1471.44,1192.76,1471.74,1191.96,1471.74z"/><path fill="#060606" d="M1169.89,1491.65c-0.88,0-1.76-0.37-2.39-1.09l-31.69-36.21c-1.16-1.32-1.02-3.33,0.3-4.48
						c1.32-1.15,3.33-1.02,4.48,0.3l31.69,36.21c1.16,1.32,1.02,3.33-0.3,4.48C1171.37,1491.39,1170.63,1491.65,1169.89,1491.65z"/><path fill="#060606" d="M1146.48,1511.01c-0.86,0-1.71-0.34-2.34-1.03l-30.83-33.48c-1.19-1.29-1.11-3.3,0.18-4.49
						c1.29-1.19,3.3-1.11,4.49,0.18l30.83,33.48c1.19,1.29,1.11,3.3-0.18,4.49C1148.02,1510.74,1147.25,1511.01,1146.48,1511.01z"/><path fill="#ffc1a4" d="M896.24,942.83l74.65,179.35l163.87,204.1l-74.45,115.16L881.53,1248.2
					c-16.79-18.15-29.78-39.47-38.2-62.72L744.81,913.6L896.24,942.83z"/><polygon fill="#f7b094" points="907.29 959.81 791.78 1055.12 770.87 951.53"/><polyline fill="#ffc1a4" points="812.48 2082.51 802.84 1990.71 925.76 1983.06 922.83 2093.23"/><polygon points="923.39 2028.27 810.13 2060.11 807.6 2033.32"/><path fill="#ff452d" d="M1024.24,2192.88c0.02,0.19,0.02,0.41,0.01,0.6l-0.38,22.29l-217.34-3.71l0.38-21.75l0.11-6.96
								c2.54-43.49-1.17-106.37-1.17-106.37l127.51,2.89l1.99,15.07c1.62,12.21,7.09,23.2,15.19,31.65
								c8.14,8.48,18.87,14.42,31.01,16.54C1006.21,2146.77,1024.39,2168.03,1024.24,2192.88z"/><path d="M1024.24,2192.88c0.02,0.19,0.02,0.41,0.01,0.6l-0.38,22.29l-217.34-3.71l0.35-21.75l0.03,0L1024.24,2192.88z"/><path fill="#060606" d="M916.38,2148.71c-1.11,0-2.21-0.51-2.92-1.47c-1.2-1.61-0.86-3.89,0.75-5.08l19.88-14.75l-28.9,2.94
								c-1.59,0.16-3.12-0.75-3.73-2.23c-0.61-1.49-0.17-3.2,1.08-4.21l18.43-14.86l-28.88,2.71c-2.02,0.18-3.77-1.28-3.95-3.28
								c-0.19-2,1.28-3.77,3.28-3.96l40.89-3.84c1.59-0.15,3.1,0.76,3.7,2.25c0.6,1.48,0.16,3.19-1.09,4.19l-18.3,14.75l29.86-3.04
								c1.63-0.16,3.16,0.78,3.75,2.3c0.59,1.52,0.09,3.25-1.22,4.23L918.54,2148C917.89,2148.48,917.13,2148.71,916.38,2148.71z"/><path fill="#060606" d="M942.29,2167.07c-0.43,0-0.86-0.08-1.29-0.24c-1.87-0.71-2.82-2.81-2.11-4.68
								c10.76-28.39,34.02-22.82,34.25-22.76c1.94,0.5,3.12,2.47,2.62,4.42c-0.49,1.94-2.45,3.11-4.4,2.63
								c-0.76-0.18-17.29-3.84-25.68,18.29C945.14,2166.18,943.76,2167.07,942.29,2167.07z"/><polyline fill="#ffc1a4" points="380.49 2040.66 390.57 1948.91 512.3 1967.54 486.05 2074.57"/><polygon points="500.39 2011.21 382.95 2018.28 386.17 1991.56"/><path fill="#ff452d" d="M564,2193.48c-0.02,0.19-0.07,0.41-0.12,0.59l-5.1,21.7L347.17,2166l4.99-21.17l1.58-6.78
								c11.72-41.96,21.44-104.19,21.44-104.19l123.99,29.9l-1.25,15.15c-1,12.27,2,24.18,8.12,34.16
								c6.15,10.01,15.38,18.1,26.79,22.74C556.16,2144.59,569.41,2169.23,564,2193.48z"/><path d="M564,2193.48c-0.02,0.19-0.07,0.41-0.12,0.59l-5.1,21.7L347.17,2166l4.96-21.18l0.03,0L564,2193.48z"/><path fill="#060606" d="M468.74,2127.5c-1.38,0-2.7-0.79-3.31-2.14c-0.83-1.83-0.01-3.98,1.81-4.8l22.55-10.19l-28.87-3.26
								c-1.6-0.18-2.89-1.39-3.17-2.97c-0.28-1.58,0.51-3.16,1.95-3.88l21.17-10.61l-28.8-3.48c-1.99-0.24-3.41-2.05-3.17-4.04
								c0.24-1.99,2.02-3.42,4.04-3.17l40.77,4.93c1.59,0.19,2.87,1.4,3.14,2.98c0.27,1.58-0.52,3.15-1.95,3.87l-21.02,10.53
								l29.82,3.37c1.62,0.18,2.93,1.43,3.18,3.04c0.25,1.61-0.6,3.2-2.09,3.87l-34.58,15.63
								C469.74,2127.39,469.24,2127.5,468.74,2127.5z"/><path fill="#060606" d="M490.16,2150.94c-0.68,0-1.36-0.19-1.98-0.59c-1.68-1.09-2.16-3.34-1.07-5.02
								c16.54-25.46,38.09-15.08,38.3-14.97c1.79,0.9,2.52,3.08,1.62,4.87c-0.89,1.79-3.06,2.52-4.86,1.63
								c-0.69-0.33-16.08-7.44-28.98,12.42C492.52,2150.36,491.35,2150.94,490.16,2150.94z"/><path fill="#0081ff" d="M954.88,2033.03H745.37l-47.08-456.86l-52.81-204.16l-58.61-226.59h196.38l92.6,360.17
							c4.02,15.68,7.4,31.5,10.06,47.46L954.88,2033.03z"/><polygon points="701.73 1347.53 698.29 1576.16 645.48 1372.01 659.76 1360.37"/><path fill="#0081ff" d="M656.71,1145.42l27.7,370.8c3.97,53.12-3.79,106.46-22.73,156.25l-114.52,345.8l-190.64-29.98
							l129.91-408.2l-26.68-434.69H656.71z"/><path fill="#fff" d="M661.69,1675.65c-0.38,0-0.76-0.07-1.13-0.21c-1.64-0.62-2.46-2.46-1.84-4.1
							c18.64-49.02,26.43-102.58,22.53-154.89l-19.5-260.99c-0.13-1.75,1.18-3.28,2.93-3.41c1.75-0.14,3.28,1.18,3.41,2.93
							l19.5,260.99c3.98,53.23-3.95,107.73-22.92,157.62C664.18,1674.87,662.97,1675.65,661.69,1675.65z"/><polygon fill="#ff452d" points="815.67 1201.25 793.24 824.97 446.86 835.45 449.38 1216.16"/><path fill="#ffc1a4" d="M605.44,894.31c65.18,1.32,57.82-60.2,32.88-84.13l-2.09-59.9l-91.52-46.4l-7.36,121.22
										C537.36,825.1,534.89,892.88,605.44,894.31z"/><path fill="#060606" d="M637.91,797.9c-9.88-4.12-39.18-17.89-47.33-39.52l46.1,5.16L637.91,797.9z"/><circle cx="636.53" cy="673.07" r="100.53" fill="#ffc1a4"/><path fill="#060606" d="M682.21,705.5c-1.28,0-2.39-0.97-2.52-2.27c-0.15-1.4,0.86-2.65,2.26-2.8
										c2.39-0.26,4.86-0.52,6.82-1.58c1.92-1.04,3.17-2.87,3.35-4.9c0.33-3.86-2.87-7.61-6.05-10.76l-17.77-17.63
										c-1-0.99-1-2.6-0.01-3.6c0.99-1,2.6-1,3.6-0.01l17.77,17.63c4.01,3.98,8.05,8.86,7.53,14.81
										c-0.32,3.74-2.56,7.08-5.99,8.93c-2.84,1.54-5.95,1.87-8.7,2.17C682.4,705.5,682.3,705.5,682.21,705.5z"/><path fill="#060606" d="M669.8,732.03c-0.75,0-1.5-0.33-2-0.97c-7.46-9.46-20.05-15.02-32.08-14.14
										c-1.37,0.1-2.62-0.95-2.72-2.35c-0.1-1.4,0.95-2.62,2.35-2.72c13.87-1.01,27.83,5.15,36.44,16.06
										c0.87,1.1,0.68,2.7-0.42,3.57C670.91,731.85,670.36,732.03,669.8,732.03z"/><path fill="#060606" d="M639.27,668.94c2.26,4.82,6.81,7.48,10.16,5.95c3.36-1.57,4.29-6.76,2.08-11.58
									c-2.25-4.87-6.8-7.53-10.16-5.95C638,658.89,637.06,664.08,639.27,668.94z"/><path fill="#060606" d="M690.08,644.73c2.26,4.82,6.81,7.48,10.16,5.95c3.36-1.57,4.29-6.76,2.08-11.58
									c-2.25-4.87-6.8-7.53-10.16-5.95C688.81,634.68,687.87,639.87,690.08,644.73z"/><path fill="#060606" d="M725.3,567.73c-1.37,10.91-5.68,21.51-12.79,29.87c-7.63,8.96-18.57,15.19-30.26,16.53
									c-11.67,1.34-23.97-2.43-32.48-10.57c-1.7,13.37-11.3,25.46-23.94,30.11c-12.64,4.65-30.54,3.59-40.47-5.53
									c0.79,12.21,1.61,24.43,2.4,36.61c0.33,5.04-2.28,29.75-11.55,21.48c-0.24-0.21-7.75-6.75-34.21-11.49
									c-24.13-4.31,13.61,34.58,8.6,37.74c-58.45,34.93-89.33-19.24-65.05-59.16c0,0-31.87-29.81-17.2-77.45
									c8.66-28.08,34.52-38.41,54.27-42.14c6.62-15.25,18.6-28.26,33.58-35.55c16.38-7.99,35.06-9.27,53.23-10.42
									c8.2-0.52,16.38-1.03,24.58-1.55c5.86-0.36,11.76-0.73,17.62-0.46c21.73,1.06,42.87,11.52,56.88,28.2
									C720.92,528.74,727.7,548.55,725.3,567.73z"/><circle cx="541.92" cy="679.46" r="27.6" fill="#ffc1a4"/><path fill="#fff" d="M678.24,593.86c-1.67,0-3.34-0.16-4.98-0.49c-1.72-0.35-2.83-2.03-2.48-3.75
							c0.35-1.72,2.04-2.82,3.75-2.48c7.22,1.47,15.16-1.44,19.73-7.23c4.58-5.78,5.57-14.17,2.48-20.87
							c-0.74-1.59-0.04-3.48,1.55-4.22c1.6-0.74,3.48-0.04,4.22,1.55c4.07,8.82,2.76,19.86-3.27,27.47
							C694.26,590.15,686.25,593.86,678.24,593.86z"/><path fill="#fff" d="M601.83,631.28c-1.69,0-3.1-1.33-3.17-3.04c-0.08-1.75,1.29-3.24,3.04-3.31
							c5.18-0.22,10.53-0.45,15.17-2.37c4.61-1.91,7.9-5.6,8.4-9.42c0.23-1.74,1.83-2.96,3.56-2.74c1.74,0.23,2.97,1.82,2.74,3.56
							c-0.8,6.12-5.5,11.67-12.27,14.47c-5.68,2.35-11.87,2.61-17.33,2.85C601.92,631.28,601.87,631.28,601.83,631.28z"/><path fill="#fff" d="M490.99,623.3c-0.54,0-1.08-0.14-1.58-0.42c-9.11-5.22-11.71-16.51-10.25-25.39
							c1.5-9.1,6.54-17.01,10.99-23.99c0.94-1.48,2.91-1.92,4.39-0.97c1.48,0.94,1.92,2.91,0.97,4.39
							c-4.12,6.47-8.8,13.8-10.08,21.61c-1.07,6.49,0.71,15.16,7.14,18.85c1.52,0.87,2.05,2.81,1.18,4.34
							C493.17,622.73,492.1,623.3,490.99,623.3z"/><path fill="#fff" d="M824.57,1923.57c-1.65,0-3.05-1.28-3.17-2.95l-26.99-376.05l-22.52-139.14
						c-3.47-21.43-16.68-39.1-36.26-48.48c-19.58-9.38-41.63-8.6-60.5,2.13c-1.53,0.87-3.47,0.33-4.33-1.19
						c-0.87-1.53-0.33-3.47,1.19-4.33c20.71-11.78,44.91-12.63,66.39-2.34c21.48,10.29,35.99,29.68,39.79,53.19l22.55,139.42
						l27.02,376.33c0.13,1.75-1.19,3.27-2.94,3.4C824.72,1923.56,824.65,1923.57,824.57,1923.57z"/><path fill="#fff" d="M901.18,1957.52H774.96c-1.76,0-3.18-1.42-3.18-3.18s1.42-3.18,3.18-3.18h126.22
						c1.76,0,3.18,1.42,3.18,3.18S902.93,1957.52,901.18,1957.52z"/><path fill="#fff" d="M513.06,1356.72c-0.85,0-1.7-0.34-2.32-1.01c-1.2-1.28-1.13-3.29,0.15-4.49
						c13.98-13.06,23.34-31.45,25.68-50.43c2.34-18.99-2.26-39.09-12.64-55.17c-0.95-1.47-0.53-3.44,0.95-4.39
						c1.47-0.95,3.44-0.53,4.39,0.95c11.17,17.3,16.14,38.95,13.61,59.39c-2.53,20.44-12.6,40.23-27.65,54.3
						C514.62,1356.43,513.84,1356.72,513.06,1356.72z"/><path fill="#fff" d="M787.05,1323.41c-0.36,0-0.73-0.06-1.09-0.19c-14.76-5.4-26.83-17.42-32.29-32.15
						c-5.46-14.74-4.14-31.72,3.54-45.43c0.86-1.53,2.79-2.08,4.33-1.22c1.53,0.86,2.08,2.79,1.22,4.33
						c-6.78,12.11-7.95,27.11-3.13,40.12c4.82,13.01,15.48,23.63,28.52,28.39c1.65,0.6,2.5,2.43,1.89,4.08
						C789.56,1322.61,788.34,1323.41,787.05,1323.41z"/><path fill="#fff" d="M477.91,1898.61c-0.38,0-0.77-0.07-1.14-0.21c-1.64-0.63-2.45-2.47-1.82-4.11l109.99-285.4
						c5.19-13.47,7.96-27.61,8.24-42.04l4.22-219.62c0.03-1.73,1.45-3.12,3.18-3.12c0.02,0,0.04,0,0.06,0
						c1.76,0.03,3.15,1.48,3.12,3.24l-4.22,219.62c-0.29,15.17-3.2,30.04-8.66,44.21l-109.99,285.4
						C480.39,1897.84,479.19,1898.61,477.91,1898.61z"/><path fill="#fff" d="M520.99,1957.52c-0.16,0-0.32-0.01-0.48-0.04l-98-14.8c-1.73-0.26-2.93-1.88-2.67-3.62
						c0.26-1.74,1.87-2.93,3.62-2.67l98,14.8c1.73,0.26,2.93,1.88,2.67,3.62C523.89,1956.39,522.53,1957.52,520.99,1957.52z"/><path fill="#ffc1a4" d="M361.04,830.53l-65.72-6.09l189.06-171.12c-23.19-6.83-38.1-57.51-54.29-101.38L162.66,781.95
					c-28.35,16.04-45.49,46.46-44.51,79.02l0,0c1.3,43.3,36.68,88.73,79.67,94.04l164.07,7.62L361.04,830.53z"/><g><path fill="#ffc1a4" d="M430.09,551.94c0,0,26.63-34.32,38.3-40.49c11.66-6.18,25.39-1.49,25.39-1.49s10.25-14.6,22.22-17.08
						c11.97-2.48,19.93,5.08,19.93,5.08s7.66-14.7,22.19-13.13c14.52,1.58,46.53,22.33,49.2,30.12c2.02,5.88,1.97,14.44-9.57,15.06
						c0,0-2.56,10.37-14.17,10.61c0,0,3.92,11-12.13,14.85s-52.34-4.92-52.34-4.92s6.63,13.01-9.43,16.84
						c-16.06,3.83-39.01,27.28-43.19,38.63c-6.43,17.44,17.89,47.29,17.89,47.29l-21.06,14.43L430.09,551.94z"/><path fill="#060606" d="M509.68,569.94c-1.15,0-2.19-0.79-2.47-1.95c-0.32-1.37,0.52-2.74,1.89-3.06
						c4.26-1.02,7.01-2.78,8.17-5.26c1.7-3.63-0.4-7.92-0.42-7.96c-0.44-0.88-0.33-1.95,0.29-2.72c0.62-0.77,1.62-1.13,2.58-0.89
						c0.36,0.09,35.88,8.58,51.15,4.92c4.93-1.18,8.19-3.15,9.69-5.85c1.57-2.82,0.68-5.59,0.64-5.7c-0.26-0.77-0.14-1.62,0.33-2.28
						c0.46-0.66,1.21-1.07,2.02-1.09c9.44-0.2,11.67-8.34,11.76-8.69c0.28-1.07,1.22-1.85,2.33-1.91c3.52-0.19,5.92-1.2,7.13-3
						c1.89-2.8,0.75-7.02,0.17-8.7c-1.4-4.09-16.18-15.48-31.42-22.94c-1.26-0.62-1.78-2.14-1.17-3.4c0.62-1.26,2.14-1.78,3.4-1.17
						c12.66,6.2,31.51,18.63,33.99,25.86c1.02,2.98,2.29,8.67-0.77,13.19c-1.9,2.82-5.03,4.52-9.33,5.07
						c-1.59,3.91-5.62,9.25-13.11,10.5c0.09,1.81-0.16,4.19-1.47,6.61c-2.2,4.05-6.57,6.89-13.01,8.44
						c-13.3,3.19-39.03-1.74-49.25-3.95c0.37,2.24,0.35,5.04-0.9,7.77c-1.84,3.98-5.75,6.7-11.62,8.1
						C510.07,569.91,509.87,569.94,509.68,569.94z"/><path fill="#060606" d="M519.11,553.1c-0.19,0-0.39-0.02-0.59-0.07l-15.72-3.72c-1.37-0.32-2.21-1.69-1.89-3.06
							s1.68-2.21,3.06-1.89l15.72,3.72c1.37,0.32,2.21,1.69,1.89,3.06C521.3,552.31,520.26,553.1,519.11,553.1z"/><path fill="#060606" d="M583.58,543.16c-0.02,0-0.05,0-0.07,0c-1.39-0.04-2.49-1.19-2.47-2.58c0-0.24-0.13-4.54-5.67-7.62
							c-4.97-2.77-35.2-9.15-54.31-12.77c-1.38-0.26-2.29-1.59-2.03-2.97c0.26-1.38,1.59-2.28,2.97-2.03
							c4.95,0.94,48.57,9.26,55.85,13.32c8.38,4.67,8.28,11.86,8.28,12.17C586.08,542.07,584.95,543.16,583.58,543.16z"/><path fill="#060606" d="M597.75,532.55c-0.99,0-1.93-0.58-2.34-1.54c-2.03-4.75-5.78-8.45-10.54-10.44l-34.37-14.34
							c-1.3-0.54-1.91-2.03-1.37-3.32c0.54-1.3,2.03-1.91,3.32-1.37l34.37,14.34c6,2.5,10.7,7.17,13.26,13.13
							c0.55,1.29-0.05,2.78-1.34,3.34C598.42,532.49,598.09,532.55,597.75,532.55z"/></g><g><path fill="#ff452d" d="M486.23,833.65l-144.9-4.58l-16.1,161.89h118.45c26.53,0,51.24-13.47,65.62-35.75l0,0
					c16.41-25.44,16.64-58.08,0.58-83.74L486.23,833.65z"/></g><g><path fill="#fff" d="M443.68,994.14c-1.76,0-3.18-1.42-3.18-3.18s1.42-3.18,3.18-3.18c25.56,0,49.09-12.82,62.95-34.3
					c0.95-1.47,2.92-1.9,4.39-0.95c1.48,0.95,1.9,2.92,0.95,4.39C496.94,980.23,471.41,994.14,443.68,994.14z"/></g><g><polygon fill="#f7b094" points="341.33 829.07 301.24 959.81 328.33 959.81"/></g><g><polygon points="796.64 1201.98 464.66 1243.9 461.58 1212.39"/></g><g><path fill="#4a4ddc" d="M1353.57,1695.39l-97.31,65.22l-106-145.58c-0.03,0-0.03-0.03-0.03-0.03l-153.66-210.97
						c-25.3-34.74-16.64-83.53,19.06-107.47c35.7-23.93,84.14-13.4,106.65,23.18l221.14,359.15c0,0,0.03,0.03,0.1,0.14
						L1353.57,1695.39z"/><path fill="#141323" d="M1353.57,1695.39l-97.31,65.22l-74.8-102.73c2.76,1.57,161.95,21.01,161.95,21.01s0.03,0.03,0.1,0.14
						L1353.57,1695.39z"/><circle cx="1454.43" cy="1938.18" r="277.74" fill="#4a4ddc"/><circle cx="1454.43" cy="1938.18" r="228.93" fill="#fff"/><path fill="#141323" d="M1668.05,2020.51c-45.48,117.97-177.97,176.74-295.94,131.3c-39.55-15.24-72.42-40.23-96.93-71.19
						c19.81,17.49,42.99,31.78,69.08,41.83c117.97,45.48,250.46-13.33,295.94-131.3c30.24-78.45,14.35-163.35-34.4-224.78
						C1675.62,1827.88,1703.44,1928.6,1668.05,2020.51z"/></g><g><path fill="#fff" d="M1999,2069.14c-0.3,0.79-0.49,1.28-0.6,1.5C1998.48,2070.41,1998.63,2069.89,1999,2069.14z"/><path fill="#060f11" d="M1998.4,2073.82c-0.4,0-0.81-0.08-1.2-0.24c-1.54-0.63-2.34-2.35-1.81-3.94l3.02,0.99l-3-1.06
						c0.11-0.34,0.32-0.99,0.76-1.87c0.76-1.52,2.57-2.17,4.12-1.49c1.55,0.68,2.29,2.46,1.69,4.04c-0.36,0.93-0.59,1.51-0.72,1.78
						C2000.7,2073.16,1999.57,2073.82,1998.4,2073.82z M1998.4,2070.64h0.04H1998.4z"/><rect width="50.93" height="1708.77" x="1899.62" y="503.21" fill="#141323"/><polygon fill="#ffd400" points="1524.68 548.58 1899.62 563.74 1899.62 793.02 1523.89 864.87 1372.24 700.89"/><path fill="#060f11" d="M1622.1,779.47c-1.64,0-3.04-1.27-3.17-2.93c-0.13-1.75,1.17-3.28,2.92-3.41
							c67.19-5.2,107.17-9.98,142.45-14.2c29.61-3.54,57.59-6.89,96.89-9.93c1.76-0.15,3.28,1.17,3.41,2.92
							c0.13,1.75-1.17,3.28-2.92,3.41c-39.17,3.03-67.08,6.37-96.62,9.9c-35.34,4.23-75.39,9.02-142.71,14.23
							C1622.26,779.47,1622.18,779.47,1622.1,779.47z"/><path fill="#060f11" d="M1877.3,596.35c-0.06,0-0.13,0-0.19-0.01l-104.71-6.13c-1.75-0.1-3.09-1.61-2.99-3.36
							c0.1-1.75,1.64-3.09,3.36-2.99l104.71,6.13c1.75,0.1,3.09,1.61,2.99,3.36C1880.37,595.04,1878.96,596.35,1877.3,596.35z"/><path fill="#060f11" d="M1767.41,615.54c-0.06,0-0.13,0-0.19-0.01l-61.7-3.6c-1.75-0.1-3.09-1.61-2.99-3.36
							c0.1-1.75,1.67-3.1,3.36-2.99l61.7,3.6c1.75,0.1,3.09,1.61,2.99,3.36C1770.48,614.24,1769.08,615.54,1767.41,615.54z"/><polygon fill="#ff73ed" points="2279.48 817.37 1950.55 832.53 1950.55 1061.81 2280.18 1133.66 2416.24 969.68"/><path fill="#060f11" d="M2192.07,1048.26c-0.09,0-0.18,0-0.28-0.01c-60.43-5.21-94.12-10-123.85-14.23
							c-24.83-3.53-48.29-6.87-83.4-9.9c-1.75-0.15-3.04-1.69-2.89-3.44c0.15-1.75,1.69-3.05,3.44-2.89
							c35.29,3.04,58.83,6.39,83.75,9.94c29.65,4.22,63.26,9,123.51,14.19c1.75,0.15,3.04,1.69,2.89,3.44
							C2195.09,1047.01,2193.71,1048.26,2192.07,1048.26z"/><path fill="#060f11" d="M1970.58,865.14c-1.66,0-3.06-1.29-3.17-2.97c-0.12-1.75,1.21-3.26,2.96-3.38l93.95-6.12
							c1.78-0.12,3.26,1.21,3.38,2.96c0.12,1.75-1.21,3.26-2.96,3.38l-93.95,6.12C1970.72,865.14,1970.65,865.14,1970.58,865.14z"/><path fill="#060f11" d="M2069.17,884.33c-1.66,0-3.06-1.29-3.17-2.97c-0.12-1.75,1.21-3.26,2.96-3.38l55.35-3.6
							c1.73-0.14,3.26,1.21,3.38,2.96c0.11,1.75-1.21,3.26-2.96,3.38l-55.35,3.6C2069.31,884.33,2069.24,884.33,2069.17,884.33z"/><path fill="#060f11" d="M2244.61,2215.16c-0.42,0-0.85-0.09-1.27-0.27c-1.61-0.7-2.34-2.57-1.64-4.18
						c4.16-9.54,13.73-36.92,8.07-48.86c-1.27-2.68-3.24-4.37-6.02-5.15c-20.15-5.7-31.53,10.78-32,11.48
						c-0.83,1.23-2.4,1.73-3.78,1.19c-1.38-0.53-2.22-1.95-2-3.42c0.02-0.17,2.34-17.14-8.94-21.86
						c-9.41-3.96-22.16,9.45-26.29,14.94c-0.94,1.25-2.66,1.63-4.04,0.89c-1.38-0.74-2.02-2.37-1.51-3.85
						c3.6-10.33-11.63-49.24-32.74-76.42c-12.05-15.52-23.32-23.66-31.81-22.95c-4.99,0.42-8.73,2.48-11.44,6.27
						c-10.12,14.2-2.14,46.38-2.06,46.7c0.33,1.31-0.21,2.7-1.34,3.44c-1.13,0.74-2.61,0.69-3.69-0.15
						c-15.35-11.9-58.82-39.91-75.37-26.88c-8.43,6.61-16.47,24.44-6.93,71.83c0.29,1.46-0.46,2.93-1.82,3.53
						c-1.36,0.61-2.96,0.18-3.84-1.01c-10.23-13.8-32.07-20.52-46.41-18.82c-4.3,0.51-11.91,2.28-14.54,8.44
						c-7.97,18.57,12.2,60.08,12.41,60.5c0.77,1.58,0.12,3.48-1.45,4.25c-1.58,0.77-3.48,0.12-4.25-1.45
						c-0.89-1.81-21.66-44.57-12.54-65.8c2.88-6.75,9.86-11.1,19.64-12.25c13.45-1.58,31.97,3.1,44.7,13.5
						c-5.65-34.73-1.92-57.49,11.12-67.72c19.28-15.19,60.34,10.63,76.52,21.98c-1.89-11.41-3.71-31.99,4.69-43.78
						c3.8-5.33,9.21-8.34,16.07-8.92c13.74-1.16,27.88,13.17,37.37,25.39c16.17,20.83,32.26,53.49,34.34,72.55
						c6.58-6.43,17.41-14.4,27.67-10.08c9.48,3.96,12.24,13.12,12.89,20.03c6.36-5.54,17.69-12.04,33.11-7.68
						c4.59,1.29,7.97,4.17,10.04,8.55c8.05,16.99-7.33,52.61-7.99,54.12C2247.01,2214.44,2245.84,2215.16,2244.61,2215.16z"/><path fill="#fff" d="M2091.79,2211.98c0,0,13.71-16.49,11.8-38.88c-1.92-22.35-38.36-24.27-38.36-24.27
						c8.94-30.06,1.92-69.1-30.06-79.32c-25.59-8.19-33.59,2.48-35.77,7.03c4.4-11.76,4.54-73.57-19.19-76.88
						c-38.95-5.43-65.45,76.52-65.45,76.52s-12.26-69.81-46.83-69.81c-34.53,0-64.93,146.93-64.93,146.93
						c-12.14-25.59-75.48-48.62-97.2-21.75c-21.76,26.86,19.16,80.44,19.16,80.44"/><path fill="#060f11" d="M1724.96,2215.16c-0.96,0-1.9-0.43-2.53-1.25c-1.73-2.27-42.17-55.88-19.11-84.36
						c8.37-10.35,23.13-14.84,41.58-12.65c22.26,2.65,45.58,14.62,56.59,28.24c7.17-32.42,33.83-141.95,66.42-141.95
						c28.42,0,42.42,41.41,47.57,61.65c8.81-22.47,32.42-72.9,65.14-68.33c5.88,0.82,10.82,4.53,14.7,11.04
						c8.98,15.07,10.6,42.64,9.06,59.12c5.97-3.5,15.79-5.29,31.73-0.19c32.47,10.38,41.1,47.94,33.15,79.54
						c10.01,1.24,35.72,6.41,37.46,26.8c2.01,23.42-11.93,40.47-12.52,41.18c-1.13,1.35-3.12,1.53-4.47,0.41
						c-1.35-1.12-1.54-3.12-0.42-4.47c0.13-0.16,12.85-15.82,11.08-36.58c-1.66-19.33-35.03-21.35-35.36-21.37
						c-0.97-0.05-1.87-0.55-2.43-1.34c-0.56-0.8-0.73-1.8-0.45-2.74c8.75-29.41,1.92-65.83-27.98-75.38
						c-22.98-7.36-29.99,1.31-31.94,5.37c-0.74,1.53-2.55,2.21-4.11,1.55c-1.56-0.67-2.33-2.44-1.73-4.04
						c3.37-9.03,3.75-47.34-6.54-64.61c-2.84-4.77-6.24-7.46-10.11-8c-35.91-4.99-61.73,73.56-61.99,74.35
						c-0.45,1.39-1.82,2.29-3.24,2.19c-1.46-0.1-2.66-1.18-2.91-2.62c-0.12-0.67-12.19-67.19-43.7-67.19
						c-26.2,0-53.51,104.23-61.81,144.4c-0.28,1.34-1.38,2.35-2.73,2.51c-1.36,0.17-2.67-0.56-3.25-1.79
						c-6.75-14.24-32.39-28.65-55.97-31.45c-16.18-1.92-28.94,1.74-35.88,10.33c-19.95,24.64,18.82,75.99,19.21,76.51
						c1.07,1.39,0.8,3.39-0.6,4.45C1726.31,2214.94,1725.64,2215.16,1724.96,2215.16z"/><path fill="#060f11" d="M1932.45,2215.16c-0.08,0-0.15,0-0.23-0.01c-1.75-0.12-3.07-1.64-2.95-3.39
						c3.36-47.51,15.43-96.29,34-137.35c0.73-1.6,2.61-2.31,4.2-1.59c1.6,0.72,2.31,2.61,1.59,4.21
						c-18.26,40.39-30.14,88.39-33.45,135.18C1935.5,2213.88,1934.11,2215.16,1932.45,2215.16z"/><path fill="#060f11" d="M1881.2,2215.16c-1.43,0-2.73-0.98-3.09-2.43c-6.36-26.17-10.88-60.94-12.11-93.01
						c-0.07-1.75,1.3-3.23,3.05-3.3c1.85-0.05,3.23,1.3,3.3,3.05c1.21,31.67,5.67,65.97,11.93,91.75c0.42,1.71-0.63,3.42-2.34,3.84
						C1881.7,2215.13,1881.45,2215.16,1881.2,2215.16z"/><path fill="#060f11" d="M1803.04,2215.16c-1.05,0-2.08-0.52-2.68-1.47c-10.75-16.84-26.88-30.2-45.43-37.62
						c-1.63-0.65-2.42-2.5-1.77-4.13c0.65-1.63,2.49-2.42,4.13-1.77c19.77,7.91,36.97,22.15,48.43,40.11
						c0.94,1.48,0.51,3.44-0.97,4.39C1804.21,2214.99,1803.62,2215.16,1803.04,2215.16z"/><g><path fill="#060f11" d="M1990.51,2215.16c-0.21,0-0.42-0.02-0.63-0.06c-1.72-0.34-2.84-2.02-2.49-3.74
						c5.07-25.34,12.86-43.25,22.72-65.93l1.31-3.02c0.7-1.61,2.57-2.35,4.18-1.65c1.61,0.7,2.35,2.57,1.65,4.18l-1.31,3.02
						c-10.09,23.2-17.38,39.97-22.32,64.64C1993.32,2214.11,1992,2215.16,1990.51,2215.16z"/></g></g><g><path fill="#ff452d" d="M736.68,826.68l65.64-3.14c36.1-1.73,69.36,19.54,82.94,53.04l31.88,78.62l-152.68,71.48L736.68,826.68z"/></g><g><path fill="#ffc1a4" d="M1134.76,1326.28l45.11,35.7c6.86,5.43,8.47,15.18,3.73,22.53l-19.23,29.8
					c-5.74,8.89-17.53,11.54-26.52,5.98l0,0c-8.97-5.55-11.86-17.26-6.5-26.35l17.9-30.39l-24.03-39.03L1134.76,1326.28z"/></g><g><path fill="#fff" d="M1823.11,383.23c0.02-0.23,0.04-0.47,0.08-0.7c3.58-27.15,27.77-47.43,55.13-46.54
					c4,0.15,7.87,0.7,11.62,1.67c11.18-31.11,41.99-52.85,77.51-50.29c35.66,2.58,64.76,30.18,69.84,65.06
					c11.56-8.45,25.82-13.44,41.23-13.44c32.89,0,60.47,22.69,67.98,53.25"/><path fill="#060f11" d="M2146.52,395.43c-1.43,0-2.73-0.97-3.08-2.42c-7.36-29.93-34.05-50.83-64.9-50.83
					c-14.26,0-27.87,4.44-39.35,12.83c-0.9,0.66-2.08,0.8-3.1,0.36c-1.03-0.43-1.75-1.37-1.91-2.47
					c-4.9-33.67-33.05-59.9-66.93-62.35c-32.72-2.37-63.25,17.46-74.29,48.19c-0.56,1.55-2.2,2.41-3.79,2
					c-3.48-0.9-7.16-1.43-10.94-1.57c-25.75-0.87-48.52,18.39-51.87,43.78c-0.05,0.3-0.06,0.43-0.07,0.57
					c-0.16,1.75-1.73,3.03-3.45,2.87c-1.75-0.16-3.04-1.71-2.87-3.45c0.03-0.33,0.06-0.65,0.12-0.98
					c3.74-28.43,29.35-50.08,58.36-49.15c3.26,0.12,6.45,0.5,9.53,1.13c12.76-31.89,45.14-52.23,79.72-49.74
					c35.16,2.55,64.64,28.64,71.88,62.85c11.66-7.37,25.02-11.23,38.96-11.23c33.79,0,63.01,22.89,71.07,55.67
					c0.42,1.71-0.62,3.43-2.33,3.84C2147.02,395.4,2146.77,395.43,2146.52,395.43z"/><path fill="#fff" d="M2105.11,368.9c7.34,5.81,12.73,13.98,15.03,23.35"/><path fill="#060f11" d="M2120.14,395.43c-1.43,0-2.73-0.97-3.08-2.42c-2.09-8.48-7.03-16.16-13.92-21.62
					c-1.38-1.09-1.61-3.09-0.52-4.46c1.09-1.38,3.09-1.61,4.47-0.52c7.99,6.33,13.73,15.24,16.15,25.08
					c0.42,1.7-0.62,3.43-2.33,3.84C2120.65,395.4,2120.39,395.43,2120.14,395.43z"/><path fill="#fff" d="M2078.53,359.66c4.3,0,8.46,0.63,12.38,1.81"/><path fill="#060f11" d="M2090.91,364.65c-0.31,0-0.61-0.04-0.92-0.14c-3.7-1.12-7.56-1.68-11.46-1.68c-1.76,0-3.18-1.42-3.18-3.18
					c0-1.75,1.42-3.18,3.18-3.18c4.53,0,9,0.66,13.29,1.95c1.68,0.51,2.63,2.28,2.13,3.96
					C2093.54,363.76,2092.28,364.65,2090.91,364.65z"/><path fill="#fff" d="M1846.51,389.77c0-16.57,13.44-30,30-30"/><path fill="#060f11" d="M1846.51,392.94c-1.76,0-3.18-1.42-3.18-3.18c0-18.29,14.88-33.18,33.17-33.18c1.76,0,3.18,1.42,3.18,3.18
					c0,1.75-1.42,3.18-3.18,3.18c-14.79,0-26.82,12.03-26.82,26.82C1849.69,391.52,1848.27,392.94,1846.51,392.94z"/><path fill="#fff" d="M2011.24,347.88c1.55,4.92,2.39,10.17,2.39,15.6"/><path fill="#060f11" d="M2013.63,366.66c-1.76,0-3.18-1.42-3.18-3.18c0-5-0.75-9.93-2.24-14.65c-0.53-1.67,0.4-3.46,2.07-3.99
					c1.67-0.52,3.46,0.4,3.99,2.08c1.68,5.34,2.54,10.91,2.54,16.56C2016.81,365.24,2015.39,366.66,2013.63,366.66z"/><g><path fill="#fff" d="M1961.79,311.65c16.92,0,31.94,8.1,41.4,20.63"/><path fill="#060f11" d="M2003.19,335.46c-0.96,0-1.91-0.44-2.54-1.26c-9.29-12.31-23.46-19.37-38.86-19.37
					c-1.76,0-3.18-1.42-3.18-3.18c0-1.75,1.42-3.18,3.18-3.18c17.42,0,33.43,7.98,43.93,21.89c1.06,1.4,0.78,3.39-0.62,4.45
					C2004.53,335.25,2003.86,335.46,2003.19,335.46z"/></g></g><g><path fill="#fff" d="M907.29,476.39c0.03-0.23,0.06-0.47,0.09-0.7c3.57-27.08,27.7-47.31,55-46.41c4,0.13,7.86,0.7,11.6,1.66
				c11.14-31.04,41.88-52.72,77.3-50.16c37.68,2.72,68.02,33.45,70.32,71.16c0.91,14.89-2.48,28.94-9.04,41.02"/><path fill="#060f11" d="M1112.55,496.13c-0.51,0-1.03-0.12-1.51-0.39c-1.54-0.84-2.11-2.77-1.28-4.31
				c6.5-11.97,9.5-25.56,8.66-39.31c-2.21-36.26-31.17-65.57-67.37-68.18c-32.61-2.34-63.07,17.41-74.08,48.06
				c-0.56,1.55-2.2,2.41-3.79,2c-3.54-0.92-7.21-1.44-10.91-1.56c-25.64-0.83-48.41,18.33-51.74,43.65l-0.08,0.67
				c-0.21,1.74-1.79,2.99-3.54,2.77c-1.74-0.21-2.98-1.8-2.77-3.54l0.09-0.72c3.76-28.53,29.32-50.15,58.25-49.18
				c3.2,0.11,6.39,0.48,9.51,1.12c12.73-31.81,44.99-52.09,79.51-49.61c39.37,2.84,70.86,34.71,73.26,74.14
				c0.91,14.94-2.35,29.71-9.42,42.73C1114.77,495.53,1113.68,496.13,1112.55,496.13z"/></g><g><path fill="#fff" d="M930.64,482.9c0-16.53,13.4-29.92,29.92-29.92"/><path fill="#060f11" d="M930.64,486.08c-1.76,0-3.18-1.42-3.18-3.18c0-18.25,14.85-33.1,33.1-33.1c1.76,0,3.18,1.42,3.18,3.18
				c0,1.75-1.42,3.18-3.18,3.18c-14.75,0-26.74,12-26.74,26.74C933.82,484.66,932.39,486.08,930.64,486.08z"/></g><g><path fill="#fff" d="M1045.62,404.99c16.87,0,31.85,8.08,41.29,20.58"/><path fill="#060f11" d="M1086.91,428.74c-0.96,0-1.91-0.44-2.54-1.26c-9.27-12.27-23.39-19.31-38.76-19.31
				c-1.76,0-3.18-1.42-3.18-3.18c0-1.75,1.42-3.18,3.18-3.18c17.37,0,33.35,7.96,43.83,21.84c1.06,1.4,0.78,3.39-0.62,4.45
				C1088.25,428.53,1087.58,428.74,1086.91,428.74z"/></g><g><path fill="#b7bef8" d="M977.16,868.61c-7.72-5.06-13.82-9.93-18.29-14.6c-4.47-4.68-7.29-9.62-8.46-14.82
			c-1.17-5.21-0.76-10.86,1.22-16.96c1.98-6.11,5.44-12.92,10.37-20.45c5.18-7.91,10.15-13.94,14.89-18.1
			c4.74-4.16,9.73-6.75,14.97-7.75c5.23-1.01,10.89-0.4,16.97,1.83c6.07,2.23,12.97,5.87,20.69,10.93
			c7.91,5.18,14.15,10.14,18.71,14.88c4.56,4.74,7.48,9.74,8.74,15.01c1.26,5.26,0.93,10.9-0.99,16.91
			c-1.92,6.01-5.47,12.97-10.65,20.88c-4.93,7.53-9.8,13.42-14.61,17.68c-4.8,4.25-9.87,6.85-15.2,7.8
			c-5.33,0.94-11.08,0.27-17.25-2.02C992.11,877.52,985.07,873.79,977.16,868.61z M1164.46,1110.81
			c-15.44-10.12-27.92-21.46-37.45-34.03c-9.53-12.57-16.19-25.82-19.99-39.74c-3.79-13.93-4.75-28.28-2.87-43.06
			c1.88-14.79,6.5-29.45,13.88-43.99l-53.6-38.35c-3.26-2.41-4.05-6.76-2.35-13.05c1.7-6.29,5.76-14.33,12.17-24.12
			c4.07-6.21,7.64-11.35,10.7-15.4c3.06-4.05,5.77-7.06,8.12-9.01c2.35-1.96,4.56-3.07,6.62-3.33c2.06-0.27,4.19,0.18,6.38,1.35
			l68.33,41.13c6.15,3.76,10.86,7.25,14.13,10.47c3.27,3.22,5.39,6.56,6.36,10.02c0.96,3.46,0.88,6.97-0.24,10.54
			c-1.13,3.56-3.04,7.42-5.76,11.56l-2.59,3.95c-6.54,9.98-10.59,19.64-12.13,28.99c-1.55,9.34-1.23,18.1,0.96,26.26
			c2.19,8.16,6.15,15.67,11.89,22.52c5.74,6.85,12.65,12.93,20.75,18.24c9.04,5.92,18.16,10.08,27.36,12.47
			c9.19,2.39,18.22,2.79,27.08,1.19c8.85-1.61,17.3-5.36,25.34-11.26c8.04-5.91,15.51-14.13,22.42-24.67
			c6.29-9.6,10.9-18.7,13.83-27.27c2.93-8.58,4.99-16.25,6.19-23c1.19-6.76,1.99-12.49,2.39-17.21c0.4-4.72,1.22-8.02,2.45-9.9
			c0.87-1.32,2.09-2.27,3.68-2.84c1.59-0.58,3.76-0.5,6.51,0.23c2.75,0.73,6.35,2.21,10.8,4.45c4.45,2.24,9.88,5.46,16.28,9.66
			c6.59,4.32,11.21,7.75,13.85,10.29c2.64,2.53,4.29,5.37,4.94,8.48c0.65,3.11,0.52,8.14-0.39,15.08
			c-0.91,6.94-2.69,14.79-5.34,23.55c-2.65,8.76-6.18,18.16-10.59,28.18c-4.42,10.02-9.83,19.93-16.25,29.73
			c-14.56,22.22-30.08,39.23-46.56,51.04c-16.48,11.81-33.2,19.35-50.16,22.65c-16.96,3.29-33.66,2.91-50.12-1.14
			C1195,1127.45,1179.33,1120.55,1164.46,1110.81z"/></g><g><path fill="#b7bef8" d="M126.48,1206.97c11.02-7.62,22.07-12.91,33.12-15.89c11.06-2.97,21.79-3.83,32.19-2.58
			c10.4,1.26,20.32,4.53,29.74,9.83c9.43,5.3,18.02,12.42,25.79,21.36l40.43-25.56c2.51-1.54,5.65-0.88,9.42,1.98
			c3.76,2.86,8.06,7.79,12.89,14.78c3.07,4.44,5.54,8.24,7.43,11.4c1.89,3.17,3.17,5.81,3.84,7.92c0.67,2.12,0.82,3.91,0.43,5.36
			c-0.38,1.46-1.27,2.76-2.65,3.92l-46.33,34.71c-4.21,3.11-7.84,5.32-10.9,6.64c-3.06,1.32-5.89,1.83-8.47,1.54
			c-2.59-0.3-4.93-1.31-7.02-3.04c-2.09-1.73-4.16-4.08-6.2-7.03l-1.95-2.82c-4.92-7.12-10.32-12.48-16.18-16.08
			c-5.86-3.59-11.83-5.77-17.92-6.53c-6.08-0.76-12.21-0.15-18.39,1.84c-6.17,1.98-12.15,4.97-17.94,8.97
			c-6.45,4.46-11.74,9.46-15.86,14.99c-4.12,5.53-6.85,11.49-8.2,17.88c-1.34,6.39-1.12,13.1,0.64,20.11
			c1.78,7.02,5.26,14.29,10.47,21.82c4.74,6.85,9.59,12.44,14.56,16.75c4.97,4.31,9.56,7.8,13.77,10.44
			c4.22,2.65,7.86,4.75,10.92,6.31c3.07,1.56,5.06,3.01,5.99,4.35c0.65,0.94,0.95,2.03,0.9,3.25c-0.05,1.23-0.69,2.67-1.93,4.32
			c-1.24,1.65-3.22,3.67-5.95,6.05c-2.72,2.38-6.37,5.15-10.94,8.31c-4.7,3.25-8.27,5.42-10.7,6.5c-2.43,1.08-4.78,1.42-7.05,1
			c-2.27-0.42-5.62-1.88-10.03-4.39c-4.42-2.51-9.21-5.85-14.38-10.02c-5.17-4.18-10.52-9.12-16.06-14.82
			c-5.53-5.71-10.72-12.06-15.55-19.05c-10.96-15.86-18.16-30.95-21.6-45.26c-3.44-14.31-3.94-27.62-1.52-39.92
			c2.42-12.3,7.24-23.43,14.46-33.39C106.95,1222.96,115.86,1214.31,126.48,1206.97z M340.53,1147.21
			c5.51-3.81,10.45-6.58,14.82-8.31c4.37-1.73,8.46-2.27,12.28-1.63c3.82,0.64,7.51,2.46,11.07,5.46c3.56,3,7.2,7.19,10.92,12.56
			c3.9,5.65,6.6,10.63,8.11,14.96c1.5,4.33,1.87,8.39,1.12,12.19c-0.75,3.8-2.71,7.43-5.87,10.91c-3.16,3.48-7.49,7.12-13.01,10.93
			c-5.65,3.9-10.69,6.74-15.12,8.52c-4.44,1.78-8.6,2.37-12.48,1.77c-3.89-0.59-7.59-2.35-11.1-5.28
			c-3.52-2.93-7.23-7.22-11.13-12.87c-3.72-5.37-6.35-10.26-7.89-14.65c-1.55-4.39-1.91-8.52-1.09-12.36
			c0.82-3.84,2.84-7.52,6.07-11.05C330.45,1154.83,334.89,1151.11,340.53,1147.21z"/></g></svg>